<svg width="300" height="400" xmlns="http://www.w3.org/2000/svg">
  <!-- Book cover background -->
  <rect width="300" height="400" fill="#f0f0f0" />
  
  <!-- Book spine shadow -->
  <rect x="10" y="10" width="280" height="380" fill="#e0e0e0" rx="5" ry="5" />
  
  <!-- Book cover -->
  <rect x="15" y="15" width="270" height="370" fill="#ffffff" stroke="#cccccc" stroke-width="2" rx="3" ry="3" />
  
  <!-- Book title placeholder -->
  <rect x="40" y="100" width="220" height="40" fill="#e6e6e6" rx="3" ry="3" />
  
  <!-- Author placeholder -->
  <rect x="60" y="160" width="180" height="20" fill="#e6e6e6" rx="3" ry="3" />
  
  <!-- Book icon -->
  <path d="M150,50 L230,50 L230,200 L150,200 Z" fill="#f5f5f5" stroke="#dddddd" stroke-width="1" />
  <path d="M150,50 L150,200 L70,200 L70,50 Z" fill="#ebebeb" stroke="#dddddd" stroke-width="1" />
  
  <!-- Library text -->
  <text x="150" y="250" font-family="Arial, sans-serif" font-size="14" text-anchor="middle" fill="#888888">Library Book</text>
  
  <!-- Barcode-like element -->
  <rect x="70" y="280" width="160" height="30" fill="#e6e6e6" rx="2" ry="2" />
  <rect x="75" y="285" width="2" height="20" fill="#aaaaaa" />
  <rect x="80" y="285" width="3" height="20" fill="#aaaaaa" />
  <rect x="86" y="285" width="1" height="20" fill="#aaaaaa" />
  <rect x="90" y="285" width="4" height="20" fill="#aaaaaa" />
  <rect x="97" y="285" width="2" height="20" fill="#aaaaaa" />
  <rect x="102" y="285" width="3" height="20" fill="#aaaaaa" />
  <rect x="108" y="285" width="2" height="20" fill="#aaaaaa" />
  <rect x="113" y="285" width="1" height="20" fill="#aaaaaa" />
  <rect x="117" y="285" width="3" height="20" fill="#aaaaaa" />
  <rect x="123" y="285" width="2" height="20" fill="#aaaaaa" />
  <rect x="128" y="285" width="4" height="20" fill="#aaaaaa" />
  <rect x="135" y="285" width="1" height="20" fill="#aaaaaa" />
  <rect x="140" y="285" width="3" height="20" fill="#aaaaaa" />
  <rect x="146" y="285" width="2" height="20" fill="#aaaaaa" />
  <rect x="151" y="285" width="1" height="20" fill="#aaaaaa" />
  <rect x="155" y="285" width="3" height="20" fill="#aaaaaa" />
  <rect x="161" y="285" width="2" height="20" fill="#aaaaaa" />
  <rect x="166" y="285" width="4" height="20" fill="#aaaaaa" />
  <rect x="173" y="285" width="1" height="20" fill="#aaaaaa" />
  <rect x="177" y="285" width="2" height="20" fill="#aaaaaa" />
  <rect x="182" y="285" width="3" height="20" fill="#aaaaaa" />
  <rect x="188" y="285" width="2" height="20" fill="#aaaaaa" />
  <rect x="193" y="285" width="1" height="20" fill="#aaaaaa" />
  <rect x="197" y="285" width="3" height="20" fill="#aaaaaa" />
  <rect x="203" y="285" width="2" height="20" fill="#aaaaaa" />
  <rect x="208" y="285" width="4" height="20" fill="#aaaaaa" />
  <rect x="215" y="285" width="1" height="20" fill="#aaaaaa" />
  <rect x="220" y="285" width="3" height="20" fill="#aaaaaa" />
  
  <!-- Library stamp -->
  <circle cx="150" y="340" r="25" fill="none" stroke="#cccccc" stroke-width="1" stroke-dasharray="2,2" />
  <text x="150" y="345" font-family="Arial, sans-serif" font-size="10" text-anchor="middle" fill="#aaaaaa">LIBRARY</text>
</svg>